<?xml version="1.0" encoding="UTF-8" standalone="no"?>
<!-- Created with Inkscape (http://www.inkscape.org/) -->

<svg
   width="86.210419mm"
   height="90.048714mm"
   viewBox="0 0 86.210418 90.048713"
   version="1.1"
   id="svg1"
   xml:space="preserve"
   xmlns="http://www.w3.org/2000/svg"
   xmlns:svg="http://www.w3.org/2000/svg"><defs
     id="defs1"><clipPath
       clipPathUnits="userSpaceOnUse"
       id="clipPath3"><circle
         style="opacity:0.521327;fill:#ff0000;fill-rule:evenodd;stroke-width:0.264583"
         id="circle3"
         cx="46.395161"
         cy="46.395161"
         r="46.395161" /></clipPath></defs><circle
     style="display:none;opacity:0.335308;fill:#ececec;fill-rule:evenodd;stroke-width:0.264583"
     id="path1"
     cx="-58.302254"
     cy="-24.570934"
     r="35.927418"
     transform="rotate(-156.18689)" /><path
     id="text27"
     clip-path="url(#clipPath3)"
     style="font-weight:300;font-size:15.875px;line-height:1.25;font-family:'Typo Round Light Demo';-inkscape-font-specification:'Typo Round Light Demo Light';letter-spacing:1.32292px;text-orientation:upright;fill:#800000;stroke-width:0.357141"
     transform="translate(-3.2899525,-2.7416081)"
     d="m 6.4522386,26.668226 q -0.4243468,0.739568 -0.2008262,1.56489 0.2235206,0.825321 0.9630886,1.249668 0.914375,0.524647 1.8662293,-0.02843 0.3628421,-0.21184 1.5686437,-1.378834 0.921656,-0.874253 1.604684,-1.098987 0.976432,-0.315553 2.105954,0.33254 1.102629,0.632663 1.428321,1.856206 0.329549,1.21682 -0.299256,2.312725 l -1.469782,2.561597 q -0.09644,0.168084 -0.286901,0.219665 -0.190459,0.05158 -0.358543,-0.04486 l -0.04034,-0.02315 q -0.168084,-0.09644 -0.219665,-0.286902 -0.05158,-0.190458 0.04486,-0.358542 l 1.50836,-2.628828 q 0.420489,-0.732845 0.200826,-1.56489 -0.22352,-0.825321 -0.963088,-1.249668 -0.900929,-0.516931 -1.872953,0.02457 -0.394585,0.220436 -1.611849,1.345106 -0.9629878,0.868412 -1.6354353,1.09028 -0.9697088,0.31941 -2.025274,-0.286248 Q 5.656664,29.643471 5.3271144,28.426651 4.9975649,27.209831 5.6302273,26.107203 l 1.0377206,-1.80858 q 0.1003002,-0.174807 0.2907589,-0.226389 0.1798778,-0.04872 0.3546848,0.05158 l 0.04034,0.02315 q 0.1680837,0.09644 0.223523,0.280178 0.051582,0.190459 -0.048718,0.365266 z m 9.3749454,-8.535867 q 1.185273,-1.160513 2.840477,-1.143043 1.655204,0.01747 2.815717,1.202743 l 2.467447,2.520089 q 0.135574,0.138466 0.133491,0.335775 -0.0021,0.197309 -0.140549,0.332883 l -0.01662,0.01627 q -0.138466,0.135574 -0.335775,0.133492 -0.197309,-0.0021 -0.332883,-0.140549 L 22.645694,20.76415 q -0.141982,2.026627 -1.22202,3.084104 -1.185272,1.160513 -2.840476,1.143043 -1.655204,-0.01747 -2.815718,-1.202743 -1.160513,-1.185272 -1.143043,-2.840476 0.01747,-1.655204 1.202743,-2.815718 z m 0.67787,0.692332 q -0.897262,0.87852 -0.910567,2.139106 -0.0078,1.255162 0.86533,2.146886 0.878519,0.897263 2.133566,0.915991 1.255163,0.0078 2.152425,-0.870753 0.897263,-0.87852 0.910452,-2.128144 0.01331,-1.260586 -0.865214,-2.157848 -0.873097,-0.891724 -2.133682,-0.905029 -1.249509,-0.02415 -2.15231,0.859791 z M 23.951491,8.1592567 q 0.173258,-0.102954 0.360521,-0.060946 0.18456,0.052631 0.287513,0.2258885 l 0.0079,0.013327 q 0.102954,0.1732572 0.06095,0.3605206 -0.05263,0.1845595 -0.225888,0.2875134 L 24.06267,9.2112674 q -0.706357,0.4197355 -0.909155,1.2164986 -0.196134,0.792804 0.216938,1.50312 l 0.122753,0.206576 2.08575,-1.239408 q 0.173258,-0.102954 0.364481,-0.05428 0.1806,0.04597 0.283554,0.219225 l 0.0079,0.01333 q 0.102954,0.173257 0.06095,0.360521 -0.04867,0.191223 -0.221928,0.294177 l -2.085751,1.239407 3.346005,5.630861 q 0.09899,0.166594 0.05032,0.357817 -0.04867,0.191223 -0.215265,0.290217 l -0.01999,0.01188 q -0.166593,0.09899 -0.357817,0.05032 -0.191223,-0.04867 -0.290217,-0.215265 l -3.963713,-6.670401 q -0.616276,-1.067454 -0.325502,-2.232081 0.30014,-1.1792092 1.359675,-1.8088124 z m 9.743763,0.3895788 q -1.197564,0.3777769 -1.779512,1.4960745 -0.574556,1.115966 -0.196779,2.313531 0.06763,0.214379 0.300124,0.693741 L 36.486816,9.0499853 Q 35.040666,8.1244195 33.695254,8.5488355 Z m 3.875116,0.199978 q 0.134951,0.1443731 0.124387,0.3427777 -0.0129,0.1910122 -0.15727,0.3259633 -0.888019,0.7921935 -2.333289,2.0852945 -1.793551,1.606167 -2.54965,2.275465 1.454685,1.004154 2.866628,0.55875 0.938832,-0.296158 1.525349,-1.090778 0.563944,-0.763114 0.589133,-1.713908 0.01294,-0.345459 0.3456,-0.450397 0.236556,-0.07462 0.437642,0.07327 0.193693,0.150227 0.182336,0.39765 -0.03501,1.254626 -0.789264,2.26472 -0.779163,1.034206 -2.006297,1.421311 -1.581968,0.499038 -3.050342,-0.265085 -1.468374,-0.764123 -1.967412,-2.346091 -0.499039,-1.581968 0.265084,-3.0503415 0.764123,-1.4683738 2.346091,-1.9674124 1.138426,-0.3591212 2.280534,-0.036652 1.115267,0.3146802 1.89074,1.1754614 z m 11.356074,-0.010969 2.662754,0.3207863 Q 52.6897,9.1912102 53.569241,8.5008037 54.440159,7.8171658 54.572738,6.7166636 54.705317,5.6161614 54.022607,4.7375478 53.3322,3.8580072 52.231698,3.7254278 51.131196,3.5928485 50.251655,4.283255 49.37981,4.9745886 49.247231,6.0750909 Z m -0.115891,0.9619774 -0.407009,3.3784651 q -0.02318,0.192395 -0.178391,0.314232 -0.155213,0.121836 -0.347609,0.09866 l -0.02309,-0.0028 q -0.192396,-0.02318 -0.314232,-0.178392 -0.121837,-0.155213 -0.09866,-0.347608 l 0.843686,-7.0031962 q 0.181717,-1.5083806 1.371684,-2.44246 1.18904,-0.9263836 2.689725,-0.7455936 1.50838,0.1817171 2.435691,1.363061 0.93408,1.1899668 0.752362,2.6983475 -0.18079,1.5006848 -1.370756,2.4347642 -1.182271,0.9350061 -2.690652,0.7532891 z M 64.095877,9.245158 q 1.52088,0.6622583 2.12673,2.202697 0.60585,1.540439 -0.05641,3.061319 l -1.408072,3.233647 q -0.07737,0.177673 -0.260996,0.249893 -0.183628,0.07222 -0.361301,-0.0051 l -0.02132,-0.0093 q -0.177673,-0.07737 -0.249893,-0.260995 -0.07222,-0.183628 0.0051,-0.361301 l 0.349697,-0.803082 q -1.931427,0.630049 -3.317276,0.02659 -1.52088,-0.662259 -2.12673,-2.202697 -0.60585,-1.540439 0.05641,-3.061319 0.662259,-1.5208802 2.202697,-2.1267302 1.540439,-0.60585 3.061319,0.056408 z m -0.386833,0.888365 q -1.15132,-0.5013361 -2.324502,-0.03993 -1.166075,0.464503 -1.664316,1.608717 -0.501336,1.151321 -0.04703,2.321408 0.464504,1.166075 1.615824,1.66741 1.151321,0.501336 2.314301,0.04394 1.173178,-0.46141 1.674513,-1.61273 0.498241,-1.144214 0.03683,-2.317395 -0.447193,-1.166993 -1.60562,-1.671423 z m 10.743098,5.40354 q 0.160912,0.121346 0.188305,0.316755 0.0212,0.190743 -0.100143,0.351655 l -0.0093,0.01238 q -0.121346,0.160912 -0.3059,0.186783 -0.195409,0.02739 -0.356322,-0.09395 l -0.352769,-0.266028 q -0.656027,-0.494718 -1.470233,-0.380584 -0.808018,0.118801 -1.308925,0.770161 l -2.753618,3.651472 q -0.116679,0.154723 -0.312088,0.182115 -0.19541,0.02739 -0.350133,-0.08929 l -0.01857,-0.014 q -0.154724,-0.116678 -0.182116,-0.312088 -0.02739,-0.195409 0.08929,-0.350133 l 2.753618,-3.651471 q 0.754455,-0.974707 1.947103,-1.152959 1.205025,-0.168918 2.189066,0.573158 z m 5.551745,0.801846 q 0.134109,0.139886 0.135544,0.331798 -0.0042,0.197276 -0.149642,0.336749 l -1.952813,1.872154 1.126511,1.175045 q 0.134108,0.139886 0.129948,0.337162 -0.0042,0.197276 -0.149642,0.336749 l -0.01119,0.01073 q -0.139886,0.134108 -0.337162,0.129948 -0.197276,-0.0042 -0.331385,-0.144046 l -1.126511,-1.175045 -3.65383,3.502912 q -0.296559,0.28431 -0.305342,0.700782 -0.0088,0.416472 0.280892,0.718626 l 0.429147,0.447636 q 0.134108,0.139887 0.129948,0.337163 -0.0042,0.197276 -0.149642,0.336749 l -0.01119,0.01073 q -0.139887,0.134108 -0.337163,0.129948 -0.197276,-0.0042 -0.331385,-0.144046 l -0.429147,-0.447637 q -0.568619,-0.593118 -0.556881,-1.409738 0.0227,-0.816388 0.61022,-1.379644 l 6.306076,-6.045608 q 0.145482,-0.139472 0.342758,-0.135312 0.191681,0.0095 0.325789,0.14941 z M 78.76703,26.748696 q -0.809464,0.503784 -1.032257,1.436762 -0.218697,0.939559 0.289182,1.755604 0.50788,0.816044 1.439247,1.02158 0.926397,0.226889 1.749023,-0.285087 l 3.455026,-2.150297 q 0.171106,-0.106491 0.363289,-0.06176 0.192182,0.04473 0.298673,0.215839 l 0.0082,0.01316 q 0.102395,0.164525 0.05766,0.356708 -0.04473,0.192182 -0.215839,0.298673 l -6.29802,3.919685 q -1.131932,0.704478 -2.510851,0.36663 -1.336212,-0.327908 -2.012019,-1.413773 -0.548838,-0.881855 -0.560934,-1.869507 -0.01794,-0.938364 0.465052,-1.731989 0.104699,-0.183853 0.320859,-0.217953 0.212064,-0.04068 0.385975,0.106725 l 0.02954,0.01813 q 0.123888,0.09637 0.157252,0.267336 0.02678,0.175063 -0.05978,0.32937 -0.336324,0.574521 -0.312996,1.272151 0.02084,0.708306 0.397656,1.313758 0.487401,0.783139 1.431056,1.008418 0.94775,0.231859 1.757214,-0.271925 l 0.829206,-0.516071 q -1.42121,-0.56717 -1.990527,-1.48193 -0.720862,-1.158256 -0.412697,-2.48218 0.301584,-1.319828 1.45984,-2.04069 l 3.455027,-2.150297 q 0.171106,-0.106491 0.363288,-0.06176 0.192183,0.04473 0.294578,0.209258 l 0.01229,0.01974 q 0.102395,0.164525 0.05766,0.356708 -0.04473,0.192182 -0.21584,0.298673 z m -46.3205,73.552974 c 0.057,-0.987679 0.28556,-3.187523 0.507892,-4.88852 1.069445,-8.182121 -0.01115,-9.667429 -13.79084,-18.956397 C 16.211504,74.466746 16.211504,74.466746 15.469706,72.718667 14.375642,70.14046 12.895901,67.431542 11.444424,65.349696 10.019823,63.306398 9.538887,62.322929 7.9068936,58.115839 6.9404628,55.624479 6.592843,54.980856 5.3205379,53.327082 3.3774086,50.801355 3.0934565,50.242321 3.3900214,49.526362 c 0.9070495,-2.189815 4.9821221,-0.586314 6.5783596,2.588516 0.770326,1.53214 1.878539,3.375626 2.03462,3.384559 0.311004,0.01783 -0.851718,-6.809597 -1.510867,-8.871673 -1.044778,-3.268482 0.719619,-4.733796 2.527714,-3.355538 0.506723,0.386261 1.016879,0.995859 1.469594,1.851696 0.447081,0.845185 0.510869,0.887674 1.252246,0.834143 2.140437,-0.154545 3.954491,2.184105 4.323683,5.574021 0.160306,1.471881 0.29616,1.706446 1.089207,1.880629 1.283336,0.281871 2.988957,2.855097 2.988957,4.509355 0,0.321131 0.283408,1.086036 0.629798,1.699806 0.346382,0.613761 0.745584,1.577636 0.887112,2.141939 1.240432,4.945857 1.484721,5.271653 5.245689,6.996036 13.128568,6.019345 15.391907,10.46259 14.999813,29.446741 -0.08179,3.959848 -0.161685,3.268788 -0.404864,-3.50173 C 45.08566,83.138587 44.064927,79.279363 40.28557,74.985806 c -0.918951,-1.043979 -1.434948,-1.246347 -0.759593,-0.297909 0.523244,0.734822 1.773004,3.53248 1.771062,3.964615 -7.46e-4,0.164616 -0.388619,-0.480959 -0.861957,-1.434615 -2.030089,-4.090155 -3.226781,-5.025946 -10.804432,-8.448806 -5.103134,-2.30513 -6.212964,-3.003312 -9.777045,-6.150705 -2.310572,-2.040426 -4.688992,-3.613679 -4.688992,-3.101615 0,0.14837 -0.158137,0.09905 -0.408301,-0.127345 -0.926521,-0.838498 -2.825884,-0.139341 -2.947186,1.08486 -0.151883,1.532922 4.799218,7.024552 8.024067,8.900062 1.703258,0.990578 3.496453,2.901346 4.752467,5.064055 1.226993,2.112741 1.116372,2.047685 -0.909975,-0.535124 -2.701869,-3.443851 -4.430641,-4.766809 -5.977193,-4.57412 -0.73155,0.09114 -0.774569,0.07668 -0.339031,-0.114073 0.274353,-0.12015 0.529374,-0.238843 0.566719,-0.263757 0.03733,-0.02494 -1.204317,-1.282806 -2.75923,-2.795315 -4.241922,-4.126242 -5.3637845,-7.456593 -2.511833,-7.456593 0.450266,0 0.438699,-0.03056 -0.897476,-2.373475 -1.752574,-3.072992 -1.8187966,-3.148209 -2.5105846,-2.851574 -0.5672201,0.243226 -0.5672201,0.243226 -0.09656,-0.158752 1.1816306,-1.009203 -1.7703501,-4.193713 -3.8875039,-4.193713 -2.0214198,0 -1.9399841,0.685694 0.4509421,3.796751 1.3215516,1.719602 1.6098426,2.273508 3.0180992,5.798891 1.3214632,3.308094 1.8168822,4.288183 3.2751132,6.479122 1.671956,2.512052 3.222918,5.399665 4.140006,7.707966 0.438831,1.104546 0.526598,1.1867 3.176297,2.973282 14.501116,9.77752 15.360544,11.04266 13.991415,20.596233 -0.737626,5.147108 -1.015088,6.370128 -0.868335,3.827518 z M 26.245828,65.227736 c -0.522119,-1.692279 -0.90524,-2.380791 -1.250954,-2.248133 -0.189562,0.07272 -0.1947,0.01115 -0.02213,-0.265175 0.315861,-0.505766 0.07676,-1.526308 -0.657517,-2.806579 -0.342632,-0.597399 -0.639082,-1.418384 -0.658773,-1.824402 -0.04936,-1.017126 -1.158224,-3.188356 -1.913601,-3.746828 -0.855897,-0.632793 -0.877389,-0.527722 -0.299788,1.465451 0.278094,0.959642 0.507592,1.891889 0.509999,2.071667 0.0026,0.179769 0.188007,0.730908 0.412429,1.224746 0.503956,1.108943 1.374688,4.468215 1.377156,5.313038 0.0018,0.711013 0.140571,0.853578 1.623237,1.670866 1.420148,0.782832 1.393228,0.808979 0.879945,-0.854651 z m -3.099956,-6.229019 c 0,-0.05489 0.04488,-0.09976 0.09977,-0.09976 0.05489,0 0.09977,0.04488 0.09977,0.09976 0,0.0549 -0.04488,0.09977 -0.09977,0.09977 -0.05489,0 -0.09977,-0.04488 -0.09977,-0.09977 z m 0.08221,5.137942 c -0.97019,-4.262265 -1.275688,-5.029279 -2.017486,-5.06535 -0.470555,-0.02283 -0.487936,-0.04084 -0.109944,-0.113643 0.580456,-0.111798 0.569424,-0.358133 -0.12715,-2.839428 -0.685369,-2.441402 -1.118552,-3.124609 -1.940548,-3.060608 -0.576099,0.04488 -0.576099,0.04488 -8.78e-4,-0.175106 1.58814,-0.607322 -0.306893,-5.532978 -2.406367,-6.254743 -1.542925,-0.530428 -1.57341,0.775016 -0.09551,4.090382 0.472354,1.059644 1.136108,3.63979 1.334585,5.187818 0.07738,0.603581 0.295634,1.411682 0.484994,1.795787 0.189351,0.384095 0.554862,1.440068 0.812237,2.346617 0.578005,2.035876 4.495512,5.974743 4.066105,4.088274 z m -3.008697,-4.971663 c 0.07317,-0.07316 0.192882,-0.07316 0.266044,0 0.07316,0.07316 0.01326,0.133018 -0.133027,0.133018 -0.146323,0 -0.206178,-0.0599 -0.133017,-0.133018 z M 18.6354,60.146024 c -0.473427,-2.023808 -0.951904,-2.746118 -1.780742,-2.688194 -0.586384,0.04102 -0.71443,0.0026 -0.492889,-0.146587 0.164619,-0.111078 0.456432,-0.203334 0.64848,-0.205021 0.473558,-0.0044 0.46056,-1.027059 -0.03935,-3.095792 -0.867315,-3.589192 -1.286797,-4.319037 -2.347047,-4.083514 -0.685307,0.152226 -0.719903,0.141072 -0.36891,-0.118982 0.213021,-0.15783 0.549733,-0.286965 0.748245,-0.286965 0.946134,0 -0.754823,-4.45836 -2.079677,-5.451008 -2.216392,-1.660634 -2.804436,-0.628305 -1.741147,3.056629 0.332497,1.152295 0.862519,3.902006 1.177836,6.110475 0.637992,4.468461 0.90798,5.262826 1.788741,5.262826 0.621016,0 3.607637,1.412402 4.008842,1.895823 0.390059,0.470002 0.618082,0.3508 0.477607,-0.24969 z M 60.180208,101.24945 C 57.677981,86.927746 58.02336,86.267907 73.456204,75.886157 c 2.652613,-1.784431 2.733657,-1.860312 3.176298,-2.974291 0.916678,-2.306958 2.464085,-5.196503 4.111096,-7.676866 1.627055,-2.450317 2.281966,-3.806921 3.970801,-8.225197 0.547596,-1.432611 1.101618,-2.437186 1.980754,-3.591572 2.399803,-3.151151 2.537531,-3.427814 1.982571,-3.982772 -0.854345,-0.854344 -2.964122,-0.0873 -4.520036,1.643226 -0.9936,1.105148 -1.136874,1.714869 -0.525596,2.236935 0.470655,0.401978 0.470655,0.401978 -0.09657,0.158752 -0.691788,-0.296635 -0.75801,-0.221418 -2.510585,2.851574 -1.336177,2.342875 -1.347739,2.373475 -0.897471,2.373475 2.851944,0 1.730088,3.330351 -2.511831,7.456593 -1.554921,1.512509 -2.796572,2.770397 -2.759226,2.795315 0.03729,0.02494 0.292358,0.143607 0.566709,0.263757 0.435539,0.190739 0.392515,0.205214 -0.339017,0.114073 -1.546564,-0.192689 -3.275341,1.130269 -5.977208,4.57412 -1.955363,2.492339 -2.09845,2.607454 -1.145588,0.921676 1.49582,-2.646345 3.15043,-4.42952 5.165287,-5.566631 2.969182,-1.675688 7.993865,-7.300493 7.846861,-8.784038 -0.121294,-1.224201 -2.020657,-1.923358 -2.947182,-1.08486 -0.250159,0.22639 -0.408303,0.275715 -0.408303,0.127345 0,-0.512309 -2.378619,1.058721 -4.688992,3.096987 -3.603695,3.179257 -4.461572,3.715526 -10.023281,6.265603 -7.476654,3.428065 -8.536326,4.264963 -10.558182,8.338536 -0.473344,0.953656 -0.861212,1.599231 -0.861962,1.434615 -0.0019,-0.432135 1.247816,-3.229793 1.771061,-3.964615 0.675345,-0.948438 0.159361,-0.74607 -0.759594,0.297909 -3.966538,4.506201 -4.824321,8.053626 -5.349496,22.123356 -0.148943,3.990638 -0.148943,3.990638 -0.278716,0.997666 -0.775184,-17.879483 2.044829,-23.403631 14.973216,-29.331193 1.803469,-0.826873 3.317999,-1.542384 3.365641,-1.590023 0.150396,-0.150409 1.651462,-4.359746 1.852161,-5.193924 0.273891,-1.138347 0.587602,-1.893742 1.11718,-2.690109 0.254132,-0.382136 0.462045,-0.980219 0.462045,-1.329078 0,-1.701553 1.685987,-4.273602 2.98895,-4.559786 0.793061,-0.174183 0.928915,-0.408748 1.089213,-1.880629 0.368549,-3.383978 2.183682,-5.728532 4.315806,-5.574593 0.731982,0.05287 0.798382,0.0079 1.243037,-0.834133 1.81339,-3.435675 5.482792,-2.712918 4.218159,0.83084 -0.726267,2.035165 -2.049655,9.270366 -1.746082,9.546194 0.06437,0.05849 0.155445,-8.78e-4 0.202469,-0.132367 0.04703,-0.13127 0.420268,-0.759787 0.829451,-1.396725 0.409183,-0.636931 0.871368,-1.472319 1.027095,-1.856424 1.00073,-2.468278 4.568494,-4.349232 6.045659,-3.187302 1.088998,0.856609 0.917784,1.398789 -1.388101,4.396055 -1.336252,1.736887 -1.60306,2.251295 -2.989222,5.763215 -1.30896,3.316315 -1.758918,4.208477 -3.214394,6.373445 -1.76037,2.618455 -2.678622,4.308785 -3.935807,7.245044 -0.742747,1.734736 -0.742747,1.734736 -3.46742,3.571871 -14.000819,9.440174 -15.069794,10.899425 -14.030285,19.152433 0.601674,4.776811 0.83064,8.555761 0.352631,5.819811 z m 6.92042,-34.993882 c 1.699133,-0.859858 1.868547,-1.055647 1.999979,-2.311256 0.112469,-1.074338 0.663278,-3.119481 1.412602,-5.244891 0.490275,-1.39062 1.339653,-4.634423 1.239693,-4.73439 -0.511018,-0.511009 -2.5579,2.698215 -2.626773,4.118416 -0.01967,0.406018 -0.316137,1.227003 -0.658771,1.824402 -0.750617,1.308746 -0.974233,2.299434 -0.639863,2.834842 0.167185,0.267705 0.171804,0.344537 0.0149,0.247556 -0.334183,-0.206531 -0.739731,0.429038 -1.208934,1.894656 -0.228375,0.713324 -0.461641,1.409188 -0.518382,1.546369 -0.14215,0.343614 0.01462,0.315676 0.985561,-0.175704 z m 2.336551,-7.256851 c 0,-0.05489 0.04488,-0.09976 0.09976,-0.09976 0.0549,0 0.09976,0.04488 0.09976,0.09976 0,0.0549 -0.04488,0.09977 -0.09976,0.09977 -0.0549,0 -0.09976,-0.04488 -0.09976,-0.09977 z m 2.049036,4.144266 c 1.677265,-1.442616 1.677265,-1.442616 2.12876,-3.090066 0.248323,-0.906102 0.609873,-1.962918 0.803451,-2.348489 0.193578,-0.385561 0.456638,-1.418734 0.584566,-2.295938 0.250112,-1.714905 0.886003,-4.047241 1.348479,-4.946008 1.366936,-2.656479 1.281404,-4.342127 -0.19459,-3.834701 -2.099471,0.721765 -3.994505,5.647421 -2.40637,6.254743 0.575187,0.21996 0.575187,0.21996 -8.72e-4,0.175106 -0.821992,-0.06403 -1.25517,0.619206 -1.94055,3.060608 -0.696576,2.481295 -0.707603,2.72763 -0.12715,2.839428 0.377993,0.07281 0.360613,0.09077 -0.109948,0.113643 -0.743328,0.0361 -1.038835,0.779134 -2.022381,5.084873 -0.172704,0.756054 -0.03916,0.686168 1.936643,-1.013199 z m 0.744406,-3.944734 c 0,-0.05489 0.04488,-0.09977 0.09976,-0.09977 0.0549,0 0.09976,0.04488 0.09976,0.09977 0,0.05489 -0.04488,0.09977 -0.09976,0.09977 -0.0549,0 -0.09976,-0.04488 -0.09976,-0.09977 z m 2.657111,1.012453 c 0.901378,-0.686922 3.136029,-1.710469 3.734761,-1.710654 0.878817,-2.71e-4 1.169648,-0.849002 1.797313,-5.245117 0.316709,-2.21829 0.847889,-4.976046 1.180376,-6.128341 1.063298,-3.684934 0.475246,-4.717263 -1.741144,-3.056629 -1.32485,0.992648 -3.025809,5.451008 -2.079674,5.451008 0.198506,0 0.535218,0.129135 0.748247,0.286965 0.350991,0.260054 0.31639,0.271208 -0.368914,0.118982 -1.060253,-0.235523 -1.479733,0.494322 -2.347045,4.083514 -0.499906,2.068733 -0.51291,3.091647 -0.03935,3.095792 0.192051,0.0018 0.483866,0.09394 0.648484,0.205021 0.221536,0.149486 0.0935,0.187568 -0.492888,0.146587 -0.789098,-0.05516 -0.793857,-0.05112 -1.222285,1.042061 -0.864651,2.206222 -0.834885,2.485835 0.18212,1.710811 z M 41.303231,79.251249 c 0,-0.146321 0.05981,-0.206186 0.133018,-0.133024 0.07316,0.07316 0.07316,0.19288 0,0.266042 -0.07316,0.07316 -0.133018,0.01335 -0.133018,-0.133018 z m 9.976573,-0.09976 c 0,-0.0549 0.04488,-0.09977 0.09976,-0.09977 0.0549,0 0.09976,0.04488 0.09976,0.09977 0,0.05489 -0.04488,0.09976 -0.09976,0.09976 -0.0549,0 -0.09976,-0.04488 -0.09976,-0.09976 z M 13.858239,62.855394 c -0.788735,-0.832306 -0.788735,-0.832306 0.129707,-0.09977 1.118964,0.892487 0.964507,0.897739 1.92782,-0.06561 1.099554,-1.099554 1.379659,-1.010951 0.315395,0.09977 -1.062464,1.108854 -1.37605,1.117524 -2.372922,0.06561 z m 62.646991,-0.08106 c -1.014259,-1.100283 -0.722454,-1.168333 0.361569,-0.08431 0.961791,0.961802 0.783841,0.956261 1.914784,0.05972 0.931463,-0.738427 0.931463,-0.738427 0.142731,0.09977 -0.989973,1.052046 -1.391521,1.039574 -2.419084,-0.07518 z M 17.359434,61.792122 c 0,-0.05489 0.04488,-0.09976 0.09977,-0.09976 0.05489,0 0.09977,0.04488 0.09977,0.09976 0,0.0549 -0.04488,0.09977 -0.09977,0.09977 -0.05489,0 -0.09977,-0.04488 -0.09977,-0.09977 z m 57.864157,0 c 0,-0.05489 0.04488,-0.09976 0.09976,-0.09976 0.0549,0 0.09976,0.04488 0.09976,0.09976 0,0.0549 -0.04488,0.09977 -0.09976,0.09977 -0.0549,0 -0.09976,-0.04488 -0.09976,-0.09977 z" /></svg>
